<svg width="845" height="596" viewBox="0 0 845 596" fill="none" xmlns="http://www.w3.org/2000/svg">
<path d="M431.393 594C456.798 594 477.393 573.405 477.393 548C477.393 522.595 456.798 502 431.393 502C405.988 502 385.393 522.595 385.393 548C385.393 573.405 405.988 594 431.393 594Z" fill="#205E61"/>
<path d="M521.393 150C534.648 150 545.393 139.255 545.393 126C545.393 112.745 534.648 102 521.393 102C508.138 102 497.393 112.745 497.393 126C497.393 139.255 508.138 150 521.393 150Z" fill="#F2F2F2"/>
<path d="M426.465 68.0034C354.573 68.5112 295.709 126.933 294.688 198.82C294.678 199.483 294.674 204.15 294.675 210.254C294.675 219.203 298.23 227.786 304.558 234.115C310.886 240.443 319.469 243.999 328.419 244C332.855 243.999 337.248 243.124 341.346 241.425C345.444 239.725 349.167 237.235 352.302 234.096C355.437 230.958 357.924 227.232 359.618 223.132C361.313 219.032 362.184 214.639 362.18 210.202C362.176 206.05 362.174 203.176 362.174 203C362.172 191.89 365.062 180.971 370.559 171.316C376.057 161.662 383.973 153.605 393.529 147.938C403.085 142.271 413.952 139.189 425.06 138.996C436.168 138.803 447.136 141.504 456.883 146.835C466.631 152.166 474.823 159.942 480.653 169.399C486.484 178.856 489.752 189.668 490.137 200.771C490.521 211.875 488.009 222.887 482.846 232.725C477.684 242.562 470.05 250.887 460.695 256.879L460.706 256.894C460.706 256.894 412.678 287.813 398.035 330.229L398.048 330.232C395.473 338.921 394.168 347.937 394.174 357C394.174 360.725 394.393 393.321 394.817 419.778C394.965 428.906 398.696 437.61 405.204 444.013C411.713 450.415 420.477 454.002 429.607 454C434.194 454 438.737 453.092 442.972 451.33C447.207 449.568 451.053 446.986 454.286 443.732C457.52 440.478 460.078 436.617 461.814 432.371C463.55 428.124 464.429 423.577 464.401 418.989C464.254 394.76 464.174 366.548 464.174 364.5C464.174 338.455 489.3 312.505 509.938 295.583C533.704 276.096 550.806 249.54 557.675 219.583C559.195 213.416 560.033 207.1 560.174 200.75C560.174 183.236 556.709 165.896 549.977 149.727C543.246 133.559 533.382 118.882 520.953 106.543C508.524 94.2039 493.777 84.4459 477.56 77.8315C461.344 71.2171 443.979 67.8769 426.465 68.0034Z" fill="#205E61"/>
<path d="M337.947 228.038C328.997 228.037 320.414 224.482 314.086 218.153C307.758 211.825 304.203 203.242 304.202 194.292C304.202 188.189 304.206 183.522 304.216 182.858C304.5 161.952 309.765 141.414 319.574 122.949C303.458 145.012 294.596 171.538 294.216 198.858C294.206 199.522 294.202 204.189 294.202 210.292C294.203 219.242 297.758 227.825 304.086 234.153C310.414 240.482 318.997 244.037 327.947 244.038C335.301 244.036 342.453 241.632 348.316 237.194C354.18 232.756 358.435 226.525 360.434 219.448C354.256 224.989 346.246 228.048 337.947 228.038Z" fill="#3F3D56"/>
<path d="M428.753 139.109C439.099 139.603 449.171 142.601 458.103 147.845C467.035 153.089 474.562 160.423 480.036 169.216C485.509 178.01 488.767 188 489.53 198.33C490.292 208.66 488.536 219.021 484.412 228.522C490.377 221.517 494.761 213.308 497.266 204.454C499.77 195.601 500.337 186.312 498.926 177.22C497.515 168.128 494.16 159.447 489.09 151.769C484.02 144.091 477.354 137.596 469.547 132.728C461.74 127.86 452.974 124.732 443.849 123.559C434.723 122.385 425.452 123.193 416.667 125.927C407.881 128.661 399.789 133.258 392.941 139.403C386.094 145.548 380.652 153.098 376.986 161.537C383.321 154.084 391.284 148.186 400.259 144.298C409.234 140.409 418.983 138.634 428.753 139.109Z" fill="#3F3D56"/>
<path d="M439.135 438.038C430.005 438.04 421.24 434.453 414.732 428.051C408.223 421.649 404.493 412.944 404.345 403.816C403.921 377.36 403.702 344.764 403.702 341.038C403.696 331.976 405.001 322.96 407.575 314.27L407.563 314.267C409.084 309.906 410.92 305.661 413.057 301.566C406.496 310.311 401.274 319.984 397.563 330.267L397.575 330.27C395.001 338.96 393.696 347.976 393.702 357.038C393.702 360.764 393.921 393.36 394.345 419.816C394.493 428.944 398.223 437.649 404.732 444.051C411.24 450.453 420.005 454.04 429.135 454.038C436.662 454.037 443.986 451.595 450.009 447.079C456.031 442.563 460.427 436.216 462.536 428.99C456.139 434.823 447.791 438.05 439.135 438.038Z" fill="#3F3D56"/>
<path d="M421.258 582.78C414.724 579.934 408.94 575.608 404.363 570.144C399.787 564.68 396.543 558.227 394.888 551.294C393.232 544.362 393.211 537.139 394.825 530.197C396.439 523.255 399.644 516.783 404.188 511.291C398.92 515.138 394.53 520.061 391.31 525.733C388.09 531.406 386.113 537.698 385.511 544.194C384.909 550.689 385.695 557.237 387.817 563.405C389.939 569.573 393.349 575.219 397.82 579.969C402.291 584.718 407.721 588.462 413.75 590.953C419.779 593.443 426.268 594.623 432.788 594.414C439.307 594.204 445.708 592.611 451.564 589.739C457.421 586.867 462.599 582.782 466.757 577.755C460.273 582.494 452.66 585.452 444.677 586.334C436.695 587.215 428.62 585.99 421.258 582.78Z" fill="#3F3D56"/>
</svg>
